<svg xmlns="http://www.w3.org/2000/svg" width="17.906" height="17.906" viewBox="0 0 17.906 17.906">
  <metadata><?xpacket begin="﻿" id="W5M0MpCehiHzreSzNTczkc9d"?>
<x:xmpmeta xmlns:x="adobe:ns:meta/" x:xmptk="Adobe XMP Core 5.6-c138 79.159824, 2016/09/14-01:09:01        ">
   <rdf:RDF xmlns:rdf="http://www.w3.org/1999/02/22-rdf-syntax-ns#">
      <rdf:Description rdf:about=""/>
   </rdf:RDF>
</x:xmpmeta>
                                                                                                    
                                                                                                    
                                                                                                    
                                                                                                    
                                                                                                    
                                                                                                    
                                                                                                    
                                                                                                    
                                                                                                    
                                                                                                    
                                                                                                    
                                                                                                    
                                                                                                    
                                                                                                    
                                                                                                    
                                                                                                    
                                                                                                    
                                                                                                    
                                                                                                    
                                                                                                    
                           
<?xpacket end="w"?></metadata>
<defs>
    <style>
      .cls-1 {
        fill: #262626;
        fill-rule: evenodd;
      }
    </style>
  </defs>
  <path id="comment" class="cls-1" d="M64.2,558.488a0.212,0.212,0,0,1-.061-0.008l-3.771-1.012a0.887,0.887,0,0,0-.229-0.03,0.956,0.956,0,0,0-.453.117,8.853,8.853,0,0,1-4.239,1.08,9.258,9.258,0,0,1-2.2-.268,9.763,9.763,0,0,1-6.43-6.3,8.97,8.97,0,0,1,8.631-11.342,9.508,9.508,0,0,1,2.452.327A8.764,8.764,0,0,1,64.1,547.4a9.061,9.061,0,0,1-.65,6.263,0.926,0.926,0,0,0-.072.655l1.037,3.881a0.229,0.229,0,0,1-.22.289h0Zm-0.922-10.883a7.868,7.868,0,0,0-5.6-5.729,8.662,8.662,0,0,0-2.233-.3h0a8.034,8.034,0,0,0-6.4,3.145,8.214,8.214,0,0,0-1.409,7.131,8.976,8.976,0,0,0,5.807,5.685,8.463,8.463,0,0,0,2,.243,7.945,7.945,0,0,0,3.833-.977,1.812,1.812,0,0,1,.859-0.22,1.742,1.742,0,0,1,.449.059l2.73,0.733-0.759-2.838a1.787,1.787,0,0,1,.132-1.256,8.183,8.183,0,0,0,.586-5.678h0Z" transform="translate(-46.5 -540.719)"/>
</svg>
