<svg xmlns="http://www.w3.org/2000/svg" width="20.5" height="17.469" viewBox="0 0 20.5 17.469">
  <metadata><?xpacket begin="﻿" id="W5M0MpCehiHzreSzNTczkc9d"?>
<x:xmpmeta xmlns:x="adobe:ns:meta/" x:xmptk="Adobe XMP Core 5.6-c138 79.159824, 2016/09/14-01:09:01        ">
   <rdf:RDF xmlns:rdf="http://www.w3.org/1999/02/22-rdf-syntax-ns#">
      <rdf:Description rdf:about=""/>
   </rdf:RDF>
</x:xmpmeta>
                                                                                                    
                                                                                                    
                                                                                                    
                                                                                                    
                                                                                                    
                                                                                                    
                                                                                                    
                                                                                                    
                                                                                                    
                                                                                                    
                                                                                                    
                                                                                                    
                                                                                                    
                                                                                                    
                                                                                                    
                                                                                                    
                                                                                                    
                                                                                                    
                                                                                                    
                                                                                                    
                           
<?xpacket end="w"?></metadata>
<defs>
    <style>
      .cls-1 {
        fill: #262626;
        fill-rule: evenodd;
      }
    </style>
  </defs>
  <path id="Combined_Shape" data-name="Combined Shape" class="cls-1" d="M24.183,558.4a1.211,1.211,0,0,1-1.434,0c-1.978-1.457-7.453-5.624-8.75-8.023a6.383,6.383,0,0,1,2.108-8.4,5.436,5.436,0,0,1,2.868-.824,5.636,5.636,0,0,1,4.491,2.3,5.635,5.635,0,0,1,4.491-2.3,5.438,5.438,0,0,1,2.868.824,6.384,6.384,0,0,1,2.108,8.4c-1.3,2.4-6.773,6.566-8.751,8.023h0Zm6.191-15.709a4.6,4.6,0,0,0-2.416-.7,4.755,4.755,0,0,0-3.807,1.955l-0.684.909-0.685-.909A4.756,4.756,0,0,0,18.975,542a4.6,4.6,0,0,0-2.416.7,5.541,5.541,0,0,0-1.807,7.289c1.231,2.277,6.823,6.5,8.508,7.744a0.348,0.348,0,0,0,.413,0c1.685-1.241,7.277-5.467,8.508-7.744a5.541,5.541,0,0,0-1.807-7.289h0Z" transform="translate(-13.219 -541.156)"/>
</svg>
