<svg xmlns="http://www.w3.org/2000/svg" viewBox="0 0 48 42"><defs><style>.cls-1{fill:#262627;}</style></defs><title>Fichier 1</title><g id="Calque_2" data-name="Calque 2"><g id="top"><path class="cls-1" d="M27.66,2a3.62,3.62,0,0,1,2.58,1.07l2.08,2.08A9.63,9.63,0,0,0,39.18,8H40a6,6,0,0,1,6,6V34a6,6,0,0,1-6,6H8a6,6,0,0,1-6-6V14A6,6,0,0,1,8,8h.82a9.63,9.63,0,0,0,6.85-2.84l2.09-2.09A3.62,3.62,0,0,1,20.33,2h7.33m0-2H20.33a5.65,5.65,0,0,0-4,1.65L14.25,3.75A7.69,7.69,0,0,1,8.81,6H8a8,8,0,0,0-8,8V34a8,8,0,0,0,8,8H40a8,8,0,0,0,8-8V14a8,8,0,0,0-8-8h-.82a7.69,7.69,0,0,1-5.44-2.26L31.66,1.66a5.64,5.64,0,0,0-4-1.66Z"/><path class="cls-1" d="M24,13A10,10,0,1,1,14,23,10,10,0,0,1,24,13m0-2A12,12,0,1,0,36,23,12,12,0,0,0,24,11Z"/></g></g></svg>