<svg xmlns="http://www.w3.org/2000/svg" viewBox="0 0 45.07 40.17"><defs><style>.cls-1{fill:#262627;}</style></defs><title>Fichier 2</title><g id="Calque_2" data-name="Calque 2"><g id="top"><path class="cls-1" d="M22.53,40.17l-.24,0A1.42,1.42,0,0,1,21.13,39L17,16.57.5,2.51A1.42,1.42,0,0,1,1.42,0H43.65a1.42,1.42,0,0,1,1.24,2.12L23.77,39.45A1.42,1.42,0,0,1,22.53,40.17ZM5.29,2.85l14,11.88a1.42,1.42,0,0,1,.48.83l3.49,19.07,18-31.79Z"/><path class="cls-1" d="M18.34,17.24a1.42,1.42,0,0,1-.71-2.66L42.94.19a1.42,1.42,0,0,1,1.41,2.47L19,17.05A1.42,1.42,0,0,1,18.34,17.24Z"/></g></g></svg>